<svg width="146" height="147" viewBox="0 0 146 147" fill="none" xmlns="http://www.w3.org/2000/svg">
<path d="M124.133 21.6713C110.478 7.97207 92.2929 0.4375 72.9674 0.4375C33.0781 0.4375 0.619196 32.9242 0.619196 72.8477C0.619196 85.601 3.9433 98.0607 10.2656 109.053L0 146.562L38.3576 136.484C48.9165 142.257 60.8116 145.29 72.9348 145.29H72.9674C112.824 145.29 146 112.804 146 72.8803C146 53.5383 137.788 35.3705 124.133 21.6713ZM72.9674 133.092C62.1478 133.092 51.5562 130.189 42.3335 124.709L40.15 123.404L17.4027 129.373L23.4643 107.161L22.0304 104.878C16.0013 95.2883 12.8402 84.2311 12.8402 72.8477C12.8402 39.676 39.8241 12.6689 73 12.6689C89.0665 12.6689 104.155 18.9314 115.496 30.3148C126.838 41.6982 133.812 56.8 133.779 72.8803C133.779 106.085 106.111 133.092 72.9674 133.092ZM105.948 88.0146C104.155 87.1014 95.2585 82.7307 93.5964 82.1436C91.9344 81.5238 90.7286 81.2303 89.5228 83.0568C88.317 84.8834 84.8625 88.9279 83.7871 90.1674C82.7442 91.3742 81.6688 91.5373 79.8763 90.624C69.2522 85.3074 62.2781 81.1324 55.2714 69.0967C53.4138 65.9002 57.129 66.1285 60.5835 59.2137C61.1701 58.0068 60.8768 56.9631 60.4205 56.0498C59.9643 55.1365 56.3469 46.232 54.8478 42.6115C53.3813 39.0889 51.8821 39.5781 50.7741 39.5129C49.7313 39.4477 48.5254 39.4477 47.3196 39.4477C46.1138 39.4477 44.1585 39.9043 42.4964 41.6982C40.8344 43.5248 36.1741 47.8955 36.1741 56.8C36.1741 65.7045 42.6594 74.3154 43.5393 75.5223C44.4518 76.7291 56.2817 94.9947 74.4339 102.855C85.9054 107.813 90.4027 108.237 96.1384 107.389C99.6255 106.867 106.828 103.019 108.327 98.7783C109.826 94.5381 109.826 90.9176 109.37 90.1674C108.946 89.352 107.74 88.8953 105.948 88.0146Z" fill="white"/>
</svg>
